<svg id="svgImage" xmlns="http://www.w3.org/2000/svg" width = "200" height = "200" viewBox="0 0 5 5">

    
        <rect x="4" y="0" width="1" height="1" fill="LightSalmon" />

    
        <rect x="0" y="0" width="1" height="1" fill="LightSalmon" />

    
        <rect x="4" y="1" width="1" height="1" fill="PeachPuff" />

    
        <rect x="0" y="1" width="1" height="1" fill="PeachPuff" />

    
        <rect x="4" y="2" width="1" height="1" fill="Cornsilk" />

    
        <rect x="0" y="2" width="1" height="1" fill="Cornsilk" />

    
        <rect x="4" y="3" width="1" height="1" fill="LightSalmon" />

    
        <rect x="0" y="3" width="1" height="1" fill="LightSalmon" />

    
        <rect x="4" y="4" width="1" height="1" fill="PeachPuff" />

    
        <rect x="0" y="4" width="1" height="1" fill="PeachPuff" />

    
        <rect x="3" y="0" width="1" height="1" fill="LightSalmon" />

    
        <rect x="1" y="0" width="1" height="1" fill="LightSalmon" />

    
        <rect x="3" y="1" width="1" height="1" fill="PeachPuff" />

    
        <rect x="1" y="1" width="1" height="1" fill="PeachPuff" />

    
        <rect x="3" y="2" width="1" height="1" fill="LightSalmon" />

    
        <rect x="1" y="2" width="1" height="1" fill="LightSalmon" />

    
        <rect x="3" y="3" width="1" height="1" fill="LightSalmon" />

    
        <rect x="1" y="3" width="1" height="1" fill="LightSalmon" />

    
        <rect x="3" y="4" width="1" height="1" fill="PeachPuff" />

    
        <rect x="1" y="4" width="1" height="1" fill="PeachPuff" />

    
        <rect x="2" y="0" width="1" height="1" fill="Cornsilk" />

    
        <rect x="2" y="1" width="1" height="1" fill="Cornsilk" />

    
        <rect x="2" y="2" width="1" height="1" fill="Cornsilk" />

    
        <rect x="2" y="3" width="1" height="1" fill="Cornsilk" />

    
        <rect x="2" y="4" width="1" height="1" fill="LightSalmon" />

    
</svg>

